<svg width="25" height="25" viewBox="0 0 25 25" fill="none" xmlns="http://www.w3.org/2000/svg">
    <path d="M21.9295 0.500061H3.07241C1.65276 0.500061 0.500977 1.65185 0.500977 3.07149V21.9286C0.500977 23.3483 1.65276 24.5001 3.07241 24.5001H21.9295C23.3492 24.5001 24.501 23.3483 24.501 21.9286V3.07149C24.501 1.65185 23.3492 0.500061 21.9295 0.500061ZM15.3563 21.0554C14.9063 21.1358 14.7403 20.8572 14.7403 20.6268C14.7403 20.3376 14.751 18.859 14.751 17.6643C14.751 16.8286 14.4724 16.2983 14.1456 16.0197C16.1278 15.8001 18.217 15.5268 18.217 12.1036C18.217 11.1286 17.8688 10.6411 17.301 10.0143C17.392 9.78399 17.6974 8.83578 17.2099 7.60363C16.4653 7.37328 14.7617 8.56256 14.7617 8.56256C14.0545 8.36435 13.2885 8.26256 12.5331 8.26256C11.7778 8.26256 11.0117 8.36435 10.3045 8.56256C10.3045 8.56256 8.60098 7.37328 7.85633 7.60363C7.36883 8.83042 7.66883 9.77863 7.76526 10.0143C7.19741 10.6411 6.92955 11.1286 6.92955 12.1036C6.92955 15.5108 8.92776 15.8001 10.9099 16.0197C10.6528 16.2501 10.4224 16.6465 10.342 17.2143C9.83312 17.4447 8.53133 17.8411 7.75455 16.4697C7.26705 15.6233 6.38848 15.5536 6.38848 15.5536C5.52062 15.5429 6.32955 16.1001 6.32955 16.1001C6.90812 16.3679 7.31526 17.3965 7.31526 17.3965C7.83491 18.9876 10.3206 18.4518 10.3206 18.4518C10.3206 19.1965 10.3313 20.4072 10.3313 20.6268C10.3313 20.8572 10.1706 21.1358 9.71526 21.0554C6.17955 19.8715 3.70455 16.5072 3.70455 12.5751C3.70455 7.6572 7.46526 3.92328 12.3831 3.92328C17.301 3.92328 21.2867 7.6572 21.2867 12.5751C21.292 16.5072 18.892 19.8768 15.3563 21.0554ZM10.101 17.7822C9.99919 17.8036 9.90276 17.7608 9.89205 17.6911C9.88133 17.6108 9.95098 17.5411 10.0528 17.5197C10.1545 17.509 10.251 17.5518 10.2617 17.6215C10.2778 17.6911 10.2081 17.7608 10.101 17.7822ZM9.59205 17.734C9.59205 17.8036 9.51169 17.8626 9.40455 17.8626C9.28669 17.8733 9.20633 17.8143 9.20633 17.734C9.20633 17.6643 9.28669 17.6054 9.39383 17.6054C9.49562 17.5947 9.59205 17.6536 9.59205 17.734ZM8.85812 17.6751C8.83669 17.7447 8.72955 17.7768 8.63848 17.7447C8.53669 17.7233 8.46705 17.6429 8.48848 17.5733C8.50991 17.5036 8.61705 17.4715 8.70812 17.4929C8.81526 17.5251 8.88491 17.6054 8.85812 17.6751ZM8.19919 17.3858C8.15098 17.4447 8.04919 17.434 7.96883 17.3536C7.88848 17.284 7.86705 17.1822 7.92062 17.134C7.96883 17.0751 8.07062 17.0858 8.15098 17.1661C8.22062 17.2358 8.24741 17.3429 8.19919 17.3858ZM7.71169 16.8983C7.66348 16.9304 7.5724 16.8983 7.51348 16.8179C7.45455 16.7376 7.45455 16.6465 7.51348 16.609C7.5724 16.5608 7.66348 16.5983 7.71169 16.6786C7.77062 16.759 7.77062 16.8554 7.71169 16.8983V16.8983ZM7.36348 16.3786C7.31526 16.4268 7.23491 16.4001 7.17598 16.3465C7.11705 16.2768 7.10633 16.1965 7.15455 16.159C7.20276 16.1108 7.28312 16.1376 7.34205 16.1911C7.40098 16.2608 7.41169 16.3411 7.36348 16.3786ZM7.00455 15.9822C6.98312 16.0304 6.91348 16.0411 6.85455 16.0036C6.78491 15.9715 6.75276 15.9126 6.77419 15.8643C6.79562 15.8322 6.85455 15.8161 6.92419 15.8429C6.99383 15.8804 7.02598 15.9393 7.00455 15.9822Z" fill="#918E9B"/>
</svg>
